<svg xmlns="http://www.w3.org/2000/svg" width="58.535" height="22" viewBox="0 0 58.535 22">
  <g id="Group_250" data-name="Group 250" transform="translate(-3985.526 -1180.82)">
    <path id="Path_394" data-name="Path 394" d="M4043.561,1200.24a2,2,0,0,1-1.908,2.08h-53.72a2,2,0,0,1-1.907-2.08V1183.4a2,2,0,0,1,1.907-2.079h53.72a2,2,0,0,1,1.908,2.079Z" fill="#f1f1f2" stroke="#808184" stroke-miterlimit="10" stroke-width="1"/>
    <g id="Group_248" data-name="Group 248">
      <path id="Path_395" data-name="Path 395" d="M4008,1189.464h-1.717v1.717h-1.717v1.717h1.717v1.717H4008V1192.9h1.717v-1.717H4008Z" fill="#da4536"/>
      <path id="Path_396" data-name="Path 396" d="M3996.262,1191.181v2.4h3.377a3.183,3.183,0,0,1-3.377,2.518,3.751,3.751,0,0,1-3.663-3.777,3.713,3.713,0,0,1,3.663-3.778,3.328,3.328,0,0,1,2.4.916l1.774-1.774a6.24,6.24,0,1,0-4.178,10.875,5.754,5.754,0,0,0,6.01-6.067,9.42,9.42,0,0,0-.115-1.317Z" fill="#da4536"/>
    </g>
    <g id="Group_249" data-name="Group 249">
      <path id="Path_397" data-name="Path 397" d="M4013.922,1193.644l1.386-.212a1.013,1.013,0,0,0,.358.612,1.215,1.215,0,0,0,.757.209,1.366,1.366,0,0,0,.806-.2.437.437,0,0,0,.182-.368.363.363,0,0,0-.1-.261,1.109,1.109,0,0,0-.462-.182,7.4,7.4,0,0,1-2.117-.673,1.343,1.343,0,0,1-.619-1.174,1.447,1.447,0,0,1,.535-1.14,2.5,2.5,0,0,1,1.661-.462,2.9,2.9,0,0,1,1.592.349,1.786,1.786,0,0,1,.717,1.032l-1.3.241a.8.8,0,0,0-.317-.467,1.156,1.156,0,0,0-.665-.162,1.509,1.509,0,0,0-.782.152.327.327,0,0,0-.157.28.305.305,0,0,0,.138.251,5.158,5.158,0,0,0,1.289.388,3.848,3.848,0,0,1,1.541.614,1.277,1.277,0,0,1,.432,1.027,1.578,1.578,0,0,1-.6,1.233,2.654,2.654,0,0,1-1.774.516,2.914,2.914,0,0,1-1.688-.432A1.994,1.994,0,0,1,4013.922,1193.644Z" fill="#404041"/>
      <path id="Path_398" data-name="Path 398" d="M4021.381,1187.929v2.649a2.066,2.066,0,0,1,2.456-.6,1.411,1.411,0,0,1,.578.452,1.656,1.656,0,0,1,.265.61,5.47,5.47,0,0,1,.071,1.036v3.061h-1.38v-2.756a4.1,4.1,0,0,0-.079-1.042.682.682,0,0,0-.278-.351.888.888,0,0,0-.5-.13,1.151,1.151,0,0,0-.615.167.959.959,0,0,0-.395.5,3,3,0,0,0-.125.995v2.614H4020v-7.2Z" fill="#404041"/>
      <path id="Path_399" data-name="Path 399" d="M4027.183,1191.506l-1.253-.226a1.953,1.953,0,0,1,.728-1.12,2.664,2.664,0,0,1,1.533-.364,3.3,3.3,0,0,1,1.375.219,1.374,1.374,0,0,1,.637.555,2.865,2.865,0,0,1,.184,1.236l-.015,1.612a5.518,5.518,0,0,0,.067,1.014,2.906,2.906,0,0,0,.248.7h-1.366c-.036-.091-.081-.227-.133-.408-.023-.081-.039-.135-.049-.162a2.464,2.464,0,0,1-.757.516,2.16,2.16,0,0,1-.86.172,1.777,1.777,0,0,1-1.27-.437,1.457,1.457,0,0,1-.464-1.106,1.482,1.482,0,0,1,.211-.788,1.381,1.381,0,0,1,.592-.531,4.633,4.633,0,0,1,1.1-.322,7.5,7.5,0,0,0,1.342-.339v-.137a.715.715,0,0,0-.2-.568,1.178,1.178,0,0,0-.742-.169.987.987,0,0,0-.575.145A1.011,1.011,0,0,0,4027.183,1191.506Zm1.848,1.12a8.606,8.606,0,0,1-.84.212,2.553,2.553,0,0,0-.752.24.577.577,0,0,0-.27.487.678.678,0,0,0,.216.5.753.753,0,0,0,.55.211,1.194,1.194,0,0,0,.713-.245.871.871,0,0,0,.329-.457,2.738,2.738,0,0,0,.054-.673Z" fill="#404041"/>
      <path id="Path_400" data-name="Path 400" d="M4033.07,1195.132h-1.381v-5.218h1.282v.742a2.254,2.254,0,0,1,.592-.693,1.1,1.1,0,0,1,.6-.167,1.747,1.747,0,0,1,.909.261l-.427,1.2a1.211,1.211,0,0,0-.649-.226.768.768,0,0,0-.491.159,1.1,1.1,0,0,0-.317.578,8.2,8.2,0,0,0-.115,1.749Z" fill="#404041"/>
      <path id="Path_401" data-name="Path 401" d="M4038.686,1193.472l1.375.23a2.256,2.256,0,0,1-.837,1.153,2.468,2.468,0,0,1-1.433.4,2.334,2.334,0,0,1-2.014-.889,2.986,2.986,0,0,1-.516-1.8,2.883,2.883,0,0,1,.678-2.032,2.233,2.233,0,0,1,1.715-.735,2.316,2.316,0,0,1,1.837.769,3.4,3.4,0,0,1,.644,2.356h-3.459a1.4,1.4,0,0,0,.334.956,1.043,1.043,0,0,0,.8.341.848.848,0,0,0,.546-.176A1.1,1.1,0,0,0,4038.686,1193.472Zm.078-1.4a1.333,1.333,0,0,0-.309-.911,1,1,0,0,0-1.465.017,1.273,1.273,0,0,0-.289.894Z" fill="#404041"/>
    </g>
  </g>
</svg>
