<svg xmlns="http://www.w3.org/2000/svg" width="69.186" height="20.75" viewBox="0 0 69.186 20.75">
  <g id="Group_253" data-name="Group 253" transform="translate(-4049.831 -1181.32)">
    <path id="Path_402" data-name="Path 402" d="M4119,1201.074a.986.986,0,0,1-1.084,1h-67.007a.986.986,0,0,1-1.083-1v-18.758a.985.985,0,0,1,1.083-1h67.02a.986.986,0,0,1,1.083,1v18.758Z" fill="#5fa8dc"/>
    <g id="Group_251" data-name="Group 251">
      <path id="Path_403" data-name="Path 403" d="M4067.962,1188.862a2.757,2.757,0,0,1-1.3.3,2.489,2.489,0,0,0,.971-1.089,6.132,6.132,0,0,1-1.4.5,2.226,2.226,0,0,0-1.512-.591,2.081,2.081,0,0,0-2.155,1.981.8.8,0,0,0,.114.5,7.124,7.124,0,0,1-4.423-2.178,1.538,1.538,0,0,0-.214,1,1.854,1.854,0,0,0,.97,1.588,1.619,1.619,0,0,1-.97-.3h0a1.975,1.975,0,0,0,1.613,1.889,5.25,5.25,0,0,0-.542.1h-.428a2.16,2.16,0,0,0,1.94,1.391,4.367,4.367,0,0,1-2.6.8h-.541a7.1,7.1,0,0,0,3.238.892,5.782,5.782,0,0,0,6.048-5.561v-.3A2.614,2.614,0,0,0,4067.962,1188.862Z" fill="#fff"/>
    </g>
    <g id="Group_252" data-name="Group 252">
      <path id="Path_404" data-name="Path 404" d="M4079.29,1186.638v1.425h-3.062v7.9h-1.89v-7.9h-3.062v-1.425Z" fill="#fff"/>
      <path id="Path_405" data-name="Path 405" d="M4078.408,1189.349h1.386a.589.589,0,0,1,.327.081.412.412,0,0,1,.177.208l1.033,3.534c.05.2.1.383.138.568s.076.371.1.545c.051-.186.1-.36.164-.545s.126-.371.189-.568l1.2-3.545a.4.4,0,0,1,.164-.209.481.481,0,0,1,.3-.081h.769a.548.548,0,0,1,.315.081.477.477,0,0,1,.176.209l1.159,3.545c.063.2.114.394.177.58s.1.37.151.556l.113-.556c.038-.186.089-.371.152-.58l1.058-3.534a.418.418,0,0,1,.176-.208.535.535,0,0,1,.3-.081h1.323l-2.331,6.616h-1.386c-.164,0-.265-.093-.328-.279l-1.285-3.823a6.947,6.947,0,0,1-.2-.765,5.9,5.9,0,0,1-.214.777l-1.31,3.811a.353.353,0,0,1-.378.279h-1.336Z" fill="#fff"/>
      <path id="Path_406" data-name="Path 406" d="M4093.339,1189.245a4.008,4.008,0,0,1,1.26.2,2.775,2.775,0,0,1,.982.579,2.571,2.571,0,0,1,.643.938,3.375,3.375,0,0,1,.239,1.275.868.868,0,0,1-.088.486.38.38,0,0,1-.327.128h-4.461a2.542,2.542,0,0,0,.2.88,1.857,1.857,0,0,0,.4.614,1.531,1.531,0,0,0,.605.36,2.311,2.311,0,0,0,.768.115,2.763,2.763,0,0,0,.731-.092,3.746,3.746,0,0,0,.529-.2c.152-.07.29-.139.4-.2a.74.74,0,0,1,.327-.093.368.368,0,0,1,.328.151l.5.579a2.657,2.657,0,0,1-.643.521,3.758,3.758,0,0,1-.743.336,4.446,4.446,0,0,1-.794.174,5.973,5.973,0,0,1-.781.047,4.185,4.185,0,0,1-1.4-.232,3.243,3.243,0,0,1-1.121-.672,3.342,3.342,0,0,1-.756-1.112,4.083,4.083,0,0,1-.277-1.53,3.289,3.289,0,0,1,.239-1.274,3.353,3.353,0,0,1,.68-1.043,3.185,3.185,0,0,1,1.084-.695A4.229,4.229,0,0,1,4093.339,1189.245Zm.037,1.147a1.67,1.67,0,0,0-1.184.394,1.846,1.846,0,0,0-.542,1.112h3.264a1.461,1.461,0,0,0-.1-.58,1.252,1.252,0,0,0-.29-.475,1.351,1.351,0,0,0-.479-.324A1.473,1.473,0,0,0,4093.376,1190.392Z" fill="#fff"/>
      <path id="Path_407" data-name="Path 407" d="M4100.836,1189.245a4.008,4.008,0,0,1,1.26.2,2.775,2.775,0,0,1,.982.579,2.577,2.577,0,0,1,.643.938,3.375,3.375,0,0,1,.239,1.275.868.868,0,0,1-.088.486.38.38,0,0,1-.327.128H4099.1a2.565,2.565,0,0,0,.2.88,1.86,1.86,0,0,0,.4.614,1.527,1.527,0,0,0,.6.36,2.317,2.317,0,0,0,.769.115,2.773,2.773,0,0,0,.731-.092,3.812,3.812,0,0,0,.529-.2c.151-.07.29-.139.4-.2a.748.748,0,0,1,.328-.093.366.366,0,0,1,.327.151l.5.579a2.666,2.666,0,0,1-.642.521,3.781,3.781,0,0,1-.744.336,4.465,4.465,0,0,1-.793.174,5.981,5.981,0,0,1-.782.047,4.174,4.174,0,0,1-1.4-.232,3.236,3.236,0,0,1-1.122-.672,3.338,3.338,0,0,1-.756-1.112,4.093,4.093,0,0,1-.277-1.53,3.267,3.267,0,0,1,.92-2.317,3.161,3.161,0,0,1,1.084-.695A4.052,4.052,0,0,1,4100.836,1189.245Zm.037,1.147a1.67,1.67,0,0,0-1.184.394,1.845,1.845,0,0,0-.542,1.112h3.264a1.465,1.465,0,0,0-.1-.58,1.252,1.252,0,0,0-.29-.475,1.351,1.351,0,0,0-.479-.324A1.51,1.51,0,0,0,4100.873,1190.392Z" fill="#fff"/>
      <path id="Path_408" data-name="Path 408" d="M4107.577,1196.069a1.957,1.957,0,0,1-1.437-.487,1.769,1.769,0,0,1-.5-1.344v-3.7h-.743a.352.352,0,0,1-.24-.081.326.326,0,0,1-.1-.255v-.637l1.159-.174.365-1.807a.325.325,0,0,1,.139-.2.42.42,0,0,1,.252-.07h.894v2.086h1.928v1.135h-1.928v3.592a.668.668,0,0,0,.164.487.611.611,0,0,0,.454.173.8.8,0,0,0,.264-.034,1.7,1.7,0,0,0,.189-.07,1.334,1.334,0,0,0,.139-.069.253.253,0,0,1,.126-.035.222.222,0,0,1,.126.035.419.419,0,0,1,.1.1l.516.776a2.716,2.716,0,0,1-.869.44A3.146,3.146,0,0,1,4107.577,1196.069Z" fill="#fff"/>
    </g>
  </g>
</svg>
